<svg width="800" height="600" viewBox="0 0 800 600" version="1.1" xmlns="http://www.w3.org/2000/svg" xmlns:xlink="http://www.w3.org/1999/xlink">
<title>mask</title>
<desc>Created using Figma</desc>
<g id="Canvas" transform="translate(251 137)">
<g id="mask">
<use xlink:href="#path0_fill" transform="translate(-251 -137)" fill="#FFFFFF"/>
</g>
</g>
<defs>
<path id="path0_fill" fill-rule="evenodd" d="M 800 0L 0 0L 0 600L 800 600L 800 0ZM 238 144C 238 99.2649 274.265 63 319 63L 400 63L 481 63C 525.735 63 562 99.2649 562 144C 562 188.735 525.735 225 481 225L 400 225L 400 306L 400 387L 400 468C 400 512.735 363.735 549 319 549C 274.265 549 238 512.735 238 468C 238 423.265 274.265 387 319 387C 274.265 387 238 350.735 238 306C 238 261.265 274.265 225 319 225C 274.265 225 238 188.735 238 144ZM 400 306C 400 261.265 436.265 225 481 225C 525.735 225 562 261.265 562 306C 562 350.735 525.735 387 481 387C 436.265 387 400 350.735 400 306Z"/>
</defs>
</svg>
